<?xml version="1.0" encoding="UTF-8" standalone="no"?>
<svg
   width="259"
   height="92"
   viewBox="0 0 259 92"
   fill="none"
   version="1.1"
   id="svg20"
   sodipodi:docname="SOS_logo.svg"
   inkscape:version="1.2 (dc2aedaf03, 2022-05-15)"
   xmlns:inkscape="http://www.inkscape.org/namespaces/inkscape"
   xmlns:sodipodi="http://sodipodi.sourceforge.net/DTD/sodipodi-0.dtd"
   xmlns="http://www.w3.org/2000/svg"
   xmlns:svg="http://www.w3.org/2000/svg">
  <defs
     id="defs24" />
  <sodipodi:namedview
     id="namedview22"
     pagecolor="#ffffff"
     bordercolor="#666666"
     borderopacity="1.0"
     inkscape:showpageshadow="2"
     inkscape:pageopacity="0.0"
     inkscape:pagecheckerboard="0"
     inkscape:deskcolor="#d1d1d1"
     showgrid="false"
     inkscape:zoom="3.6011905"
     inkscape:cx="168"
     inkscape:cy="46.095868"
     inkscape:window-width="1858"
     inkscape:window-height="1057"
     inkscape:window-x="54"
     inkscape:window-y="1420"
     inkscape:window-maximized="1"
     inkscape:current-layer="svg20" />
  <path
     d="m 107.19338,45.966106 c 4.82542,-6.753795 12.74139,-10.811051 21.42388,-10.811051 3.86034,0 7.71904,0.773206 11.1953,2.511007 0.581,0.191715 0.96508,0.773206 1.15549,1.34835 0.19204,0.581329 0,1.156473 -0.19041,1.737965 l -4.2493,6.178487 27.03373,-2.504823 -9.07308,-22.970127 -3.47626,5.01583 c -0.581,0.964759 -1.93017,1.156473 -2.89362,0.773044 -4.44134,-2.121394 -9.26513,-3.475765 -14.28747,-3.475765 -10.23021,0 -19.8843,4.824115 -25.48114,12.932281 -3.08566,4.248972 -4.63175,9.264802 -5.01583,14.286817 l 1.34754,0.383429 c 0.39059,-2.121394 1.35568,-3.859357 2.51117,-5.405444 z"
     fill="#e0ffff"
     id="path14"
     style="stroke-width:1.62746" />
  <path
     d="m 162.78903,52.336471 c -0.77305,1.737964 -1.54608,3.475928 -2.70321,5.01583 -4.8238,6.753795 -12.73975,10.811051 -21.42388,10.811051 -3.8587,0 -7.71904,-0.773206 -11.19366,-2.511007 -0.58263,-0.191715 -0.96509,-0.773206 -1.15713,-1.34835 -0.19204,-0.581328 0,-1.156473 0.19204,-1.737965 l 4.24767,-6.178486 -27.03211,2.511007 9.07309,22.970127 3.47463,-5.01583 c 0.58263,-0.964759 1.93017,-1.156473 2.89525,-0.773044 4.43971,2.121231 9.26512,3.284051 14.28584,3.284051 10.23021,0 19.8843,-4.824116 25.48114,-12.932283 3.08728,-4.248971 4.63337,-9.264801 5.01582,-14.286816 z"
     fill="#ff0000"
     id="path16"
     style="stroke-width:1.62746" />
  <path
     d="m 88.853542,61.878592 c 0,-1.239636 -0.19204,-2.352168 -0.57287,-3.337595 -0.349903,-1.017161 -1.017164,-1.938955 -2.001774,-2.765378 -0.986236,-0.858323 -2.369579,-1.700533 -4.148394,-2.526957 -1.78044,-0.826587 -4.084922,-1.684746 -6.913444,-2.574804 -3.147507,-1.017162 -6.135526,-2.161429 -8.964048,-3.4328 -2.797604,-1.271534 -5.276224,-2.749593 -7.437486,-4.434339 -2.130352,-1.716319 -3.814767,-3.702959 -5.05489,-5.95992 -1.207579,-2.256798 -1.811368,-4.879124 -1.811368,-7.86714 0,-2.892484 0.634708,-5.514808 1.907384,-7.866976 1.27105,-2.384066 3.05149,-4.41839 5.339695,-6.102974 2.288205,-1.716481 4.989794,-3.0357 8.104747,-3.957493 3.147506,-0.921793 6.596095,-1.3826896 10.34739,-1.3826896 5.116728,0 9.58248,0.9217936 13.397248,2.7653796 3.814758,1.843586 6.770218,4.370706 8.868018,7.581032 2.13035,3.21049 3.19471,6.881712 3.19471,11.013995 H 88.900738 c 0,-2.034324 -0.429651,-3.814277 -1.287318,-5.34002 -0.826749,-1.557642 -2.097799,-2.781328 -3.814768,-3.671386 -1.684424,-0.890057 -3.814767,-1.335005 -6.389403,-1.335005 -2.478629,0 -4.5455,0.381476 -6.197372,1.144267 -1.653497,0.731054 -2.893619,1.732431 -3.718743,3.003802 -0.826748,1.239636 -1.240122,2.638274 -1.240122,4.195753 0,1.176165 0.28643,2.241012 0.857667,3.194541 0.603789,0.953691 1.494009,1.843586 2.670669,2.670173 1.175026,0.826423 2.621831,1.605163 4.3388,2.336218 1.716968,0.731054 3.702475,1.446323 5.959761,2.145642 3.782215,1.144267 7.10386,2.431588 9.964936,3.861962 2.891994,1.430374 5.308768,3.035537 7.247065,4.815653 1.93994,1.779952 3.4014,3.798491 4.38601,6.055288 0.98624,2.256799 1.47937,4.815653 1.47937,7.676402 0,3.019751 -0.58915,5.721497 -1.76418,8.105562 -1.17665,2.383903 -2.87734,4.402278 -5.10208,6.055289 -2.224735,1.652848 -4.879119,2.908433 -7.963163,3.766592 -3.082401,0.858323 -6.530989,1.287321 -10.345756,1.287321 -3.433937,0 -6.819054,-0.444948 -10.155342,-1.335005 -3.337921,-0.921793 -6.373136,-2.304483 -9.107268,-4.148069 -2.701579,-1.843586 -4.862849,-4.195754 -6.483802,-7.056503 -1.622569,-2.86091 -2.43305,-6.246026 -2.43305,-10.155835 h 14.352564 c 0,2.161591 0.333635,3.989229 1.000887,5.483237 0.667261,1.493845 1.604676,2.701746 2.81388,3.623538 1.238498,0.921794 2.701588,1.589377 4.386004,2.00259 1.716969,0.413212 3.5918,0.619899 5.626127,0.619899 2.47862,0 4.512947,-0.349741 6.102972,-1.049061 1.620953,-0.699319 2.812255,-1.668797 3.575532,-2.908433 0.794196,-1.239636 1.192927,-2.638274 1.192927,-4.195753 z m 108.803808,0 c 0,-1.239636 -0.19042,-2.352168 -0.57286,-3.337595 -0.34828,-1.017161 -1.01717,-1.938955 -2.00178,-2.765378 -0.98462,-0.858323 -2.36795,-1.700533 -4.14839,-2.526957 -1.78045,-0.826587 -4.08493,-1.684746 -6.91346,-2.574804 -3.14588,-1.017162 -6.13389,-2.161429 -8.96404,-3.4328 -2.79597,-1.271534 -5.27623,-2.749593 -7.43749,-4.434339 -2.13035,-1.716319 -3.81477,-3.702959 -5.05326,-5.95992 -1.20921,-2.256798 -1.813,-4.879124 -1.813,-7.86714 0,-2.892484 0.63635,-5.514808 1.90739,-7.866976 1.27105,-2.384066 3.05149,-4.41839 5.33969,-6.102974 2.28984,-1.716481 4.99142,-3.0357 8.10638,-3.957493 3.14588,-0.921793 6.5961,-1.3826896 10.34576,-1.3826896 5.11836,0 9.58411,0.9217936 13.39887,2.7653796 3.81314,1.843586 6.77024,4.370706 8.86803,7.581032 2.12872,3.21049 3.19471,6.881712 3.19471,11.013995 h -14.20936 c 0,-2.034324 -0.42801,-3.814277 -1.28732,-5.34002 -0.82512,-1.557642 -2.09779,-2.781328 -3.81313,-3.671386 -1.68605,-0.890057 -3.81477,-1.335005 -6.38941,-1.335005 -2.48025,0 -4.54549,0.381476 -6.19899,1.144267 -1.65187,0.731054 -2.892,1.732431 -3.71875,3.003802 -0.82675,1.239636 -1.24012,2.638274 -1.24012,4.195753 0,1.176165 0.28643,2.241012 0.8593,3.194541 0.60379,0.953691 1.49401,1.843586 2.66903,2.670173 1.17665,0.826423 2.62347,1.605163 4.33881,2.336218 1.71697,0.731054 3.70409,1.446323 5.95975,2.145642 3.78384,1.144267 7.10549,2.431588 9.96494,3.861962 2.89362,1.430374 5.30878,3.035537 7.2487,4.815653 1.93831,1.779952 3.39976,3.798491 4.38601,6.055288 0.98461,2.256799 1.47773,4.815653 1.47773,7.676402 0,3.019751 -0.58751,5.721497 -1.76416,8.105562 -1.17665,2.383903 -2.87573,4.402278 -5.10209,6.055289 -2.22474,1.652848 -4.87912,2.908433 -7.96153,3.766592 -3.08404,0.858323 -6.53263,1.287321 -10.34739,1.287321 -3.43232,0 -6.81742,-0.444948 -10.15535,-1.335005 -3.33792,-0.921793 -6.37313,-2.304483 -9.10726,-4.148069 -2.70158,-1.843586 -4.86285,-4.195754 -6.4838,-7.056503 -1.62095,-2.86091 -2.43142,-6.246026 -2.43142,-10.155835 h 14.35094 c 0,2.161591 0.33362,3.989229 1.00088,5.483237 0.66889,1.493845 1.60631,2.701746 2.81388,3.623538 1.24013,0.921794 2.70158,1.589377 4.386,2.00259 1.71697,0.413212 3.59181,0.619899 5.62613,0.619899 2.48025,0 4.51457,-0.349741 6.10298,-1.049061 1.62094,-0.699319 2.81387,-1.668797 3.57715,-2.908433 0.7942,-1.239636 1.1913,-2.638274 1.1913,-4.195753 z"
     fill="#000000"
     id="path18"
     style="stroke-width:1.62746" />
</svg>
